# https://github.com/mikedh/trimesh
v 0.59768011 -0.20854041 0.94313029
v 0.60501341 -0.20981756 0.94304566
v 0.60954878 -0.20183220 0.94320605
v 0.60671620 -0.19863783 0.94332294
v 0.60448453 -0.19423619 0.94339030
v 0.59257669 -0.19966085 0.94340884
v 0.59050414 -0.20565801 0.94326360
v 0.59726528 -0.19446427 0.94351478
v 0.59505193 -0.21106496 0.94299962
v 0.60078425 -0.21255127 0.94289471
v 0.60976784 -0.20790519 0.94298361
v 0.58970381 -0.19976034 0.94337761
v 0.59458781 -0.19319183 0.94350758
v 0.59981409 -0.19118839 0.94347223
v 0.60712935 -0.19403662 0.94330412
v 0.60881154 -0.19699473 0.94324854
v 0.59048023 -0.20895008 0.94306264
v 0.60698818 -0.21091723 0.94288927
v 0.59024447 -0.19403440 0.94335591
v 0.61268926 -0.20412242 0.94289205
v 0.58711526 -0.20324876 0.94310846
v 0.59828042 -0.18968705 0.94337744
v 0.59365924 -0.19049935 0.94333774
v 0.61179546 -0.19734756 0.94298610
v 0.60592326 -0.21413966 0.94255769
v 0.59592169 -0.21552727 0.94251559
v 0.59109253 -0.21443156 0.94245001
v 0.60268380 -0.21650705 0.94233964
v 0.58604932 -0.19964613 0.94303850
v 0.60886527 -0.21321632 0.94248932
v 0.60343678 -0.18995317 0.94320249
v 0.58830258 -0.21128278 0.94261270
v 0.61254272 -0.20950102 0.94252430
v 0.58495329 -0.20459921 0.94275602
v 0.58651009 -0.20810924 0.94271878
v 0.59985134 -0.21835578 0.94202022
v 0.60566071 -0.21775923 0.94189553
v 0.58683320 -0.19504079 0.94292559
v 0.61481458 -0.20137252 0.94248823
v 0.59466737 -0.21760509 0.94203930
v 0.59187913 -0.21750450 0.94180238
v 0.60851398 -0.21666694 0.94180220
v 0.58368986 -0.20336302 0.94248318
v 0.59655768 -0.18778153 0.94304977
v 0.59040140 -0.19089314 0.94301743
v 0.61084895 -0.19267158 0.94265830
v 0.58779505 -0.21347257 0.94215930
v 0.61180778 -0.21311767 0.94204376
v 0.61510418 -0.20590723 0.94228351
v 0.60686293 -0.18985825 0.94280551
v 0.59984354 -0.18754802 0.94296261
v 0.61447058 -0.19901914 0.94248943
v 0.61415520 -0.19575131 0.94219769
v 0.59320006 -0.18844193 0.94294980
v 0.58495009 -0.21053961 0.94204809
v 0.60184478 -0.22039675 0.94132573
v 0.58389730 -0.19921227 0.94253056
v 0.61484175 -0.20854202 0.94205701
v 0.60407358 -0.18830765 0.94279890
v 0.59534408 -0.22006489 0.94128056
v 0.59884046 -0.22069143 0.94120883
v 0.59165240 -0.21847099 0.94144766
v 0.58828927 -0.21619818 0.94145019
v 0.60502018 -0.22007793 0.94117258
v 0.58240484 -0.20697891 0.94174733
v 0.58713317 -0.19234183 0.94255818
v 0.61499642 -0.21162744 0.94139714
v 0.60877838 -0.21818375 0.94126845
v 0.61211722 -0.21530692 0.94133443
v 0.58405755 -0.19636869 0.94226606
v 0.58548143 -0.21378539 0.94142366
v 0.58352063 -0.21028670 0.94159053
v 0.58149477 -0.20247268 0.94161517
v 0.59060586 -0.18828789 0.94231592
v 0.61714253 -0.20250063 0.94151707
v 0.61055210 -0.19056435 0.94209917
v 0.58264490 -0.19781478 0.94186804
v 0.61646506 -0.20818627 0.94138401
v 0.60201250 -0.18584542 0.94201927
v 0.60712431 -0.18747514 0.94183874
v 0.59659337 -0.18577292 0.94215163
v 0.59933345 -0.18552126 0.94203391
v 0.59354625 -0.18646257 0.94211606
v 0.61301391 -0.19211241 0.94164910
v 0.58438942 -0.19375959 0.94177477
v 0.58781248 -0.18977133 0.94187612
v 0.60139176 -0.22207115 0.94030889
v 0.59571664 -0.22142334 0.94047283
v 0.60796435 -0.22034341 0.94022338
v 0.61035463 -0.18927376 0.94157412
v 0.58940903 -0.21834331 0.94070449
v 0.59884416 -0.22215147 0.94024176
v 0.59244754 -0.22041568 0.94039911
v 0.60502016 -0.18614759 0.94153159
v 0.61179289 -0.21735821 0.94033679
v 0.58549355 -0.21558414 0.94038312
v 0.58125342 -0.20787145 0.94069267
v 0.58096804 -0.19915905 0.94071200
v 0.61746651 -0.20805194 0.94054567
v 0.58076179 -0.20163668 0.94086650
v 0.58021174 -0.20444004 0.94018382
v 0.61703439 -0.21083766 0.93987350
v 0.58161674 -0.19654775 0.94050837
v 0.60979231 -0.18748377 0.94039885
v 0.59079750 -0.18625575 0.94063529
v 0.58763353 -0.18854849 0.94075255
v 0.58489410 -0.19123244 0.94051356
v 0.59394998 -0.18514002 0.94091125
v 0.60291562 -0.18468958 0.94062349
v 0.59917057 -0.18404658 0.94038870
v 0.58268136 -0.19411419 0.94017380
v 0.59566768 -0.18427325 0.94021628
v 0.58031258 -0.20732697 0.93951327
v 0.58006977 -0.20173765 0.93980617
v 0.59322031 -0.18447913 0.93919008
v 0.58006457 -0.19858371 0.93856435
v 0.59013972 -0.18555650 0.93866781
v 0.57942975 -0.20440624 0.93833691
v 0.58081373 -0.19600782 0.93816517
v 0.58870126 -0.18616951 0.93763347
v 0.59180146 -0.18420149 0.93667720
v 0.59885027 -0.23821820 0.71465558
v 0.59139177 -0.23790405 0.71484267
v 0.60298779 -0.23812926 0.71460802
v 0.59447924 -0.23810115 0.71464933
v 0.60851537 -0.23715667 0.71460801
v 0.60520024 -0.23770350 0.71458125
v 0.61224281 -0.23619810 0.71488302
v 0.58296081 -0.23528382 0.71521869
v 0.58441205 -0.23634017 0.71552808
v 0.58546325 -0.23674856 0.71535011
v 0.57601574 -0.23135127 0.71595373
v 0.57408627 -0.23025418 0.71633351
v 0.57875300 -0.23261133 0.71533042
v 0.58105499 -0.23413299 0.71525326
v 0.57345512 -0.22842195 0.71527021
v 0.56410721 -0.21494735 0.71467481
v 0.56205509 -0.21303676 0.71531941
v 0.58874128 -0.23760534 0.71504678
v 0.62155552 -0.23113761 0.71537772
v 0.61783234 -0.23310263 0.71501056
v 0.61693861 -0.23349463 0.71494943
v 0.61480157 -0.23516282 0.71511471
v 0.62490840 -0.22790113 0.71519486
v 0.62926822 -0.22243672 0.71554754
v 0.63078861 -0.22003132 0.71524449
v 0.63219189 -0.21740965 0.71496691
v 0.57041936 -0.18302348 0.87501239
v 0.56909411 -0.18591644 0.87605984
v 0.56216518 -0.19806376 0.86360466
v 0.56278637 -0.19695322 0.86522603
v 0.56133308 -0.18965327 0.85170840
v 0.56034652 -0.19439391 0.85203532
v 0.56076970 -0.18903241 0.84863032
v 0.55992570 -0.19074503 0.84549893
v 0.55921096 -0.19421462 0.84658147
v 0.57049858 -0.17141980 0.71766347
v 0.57378535 -0.16853082 0.71760740
v 0.56724507 -0.17559357 0.71668860
v 0.56519084 -0.17744254 0.71831826
v 0.57020841 -0.17224756 0.71658254
v 0.56367755 -0.17992972 0.71728679
v 0.56359315 -0.17674514 0.72463559
v 0.56779740 -0.17128849 0.72598443
v 0.56610769 -0.17316416 0.72583388
v 0.57014557 -0.16900468 0.72557448
v 0.56619792 -0.17239727 0.72755962
v 0.56420290 -0.17458008 0.72835290
v 0.57034512 -0.17325549 0.71458719
v 0.57394180 -0.16908639 0.71619890
v 0.56196301 -0.17869381 0.72598693
v 0.56489696 -0.17932993 0.71582251
v 0.56121230 -0.17918811 0.72802569
v 0.56055710 -0.18057411 0.72718019
v 0.57224034 -0.17147354 0.71466808
v 0.57372629 -0.16563885 0.72700371
v 0.55788371 -0.18700527 0.72685356
v 0.55797588 -0.19090777 0.72002077
v 0.56038514 -0.18749180 0.71676497
v 0.56194852 -0.18441935 0.71650090
v 0.56309703 -0.18372072 0.71489635
v 0.56199779 -0.18522026 0.71562958
v 0.56111496 -0.18718799 0.71562213
v 0.56710829 -0.17772161 0.71456110
v 0.55930333 -0.19219921 0.71646691
v 0.56057527 -0.18858798 0.71589571
v 0.55819053 -0.19378332 0.71845393
v 0.55722494 -0.19208131 0.72152417
v 0.56002820 -0.19294777 0.71525830
v 0.55844727 -0.19810086 0.71745184
v 0.57580037 -0.16930701 0.71440546
v 0.58155511 -0.16596608 0.71425741
v 0.58621866 -0.16264602 0.71452362
v 0.58733078 -0.16133736 0.71564113
v 0.58754494 -0.16057538 0.71724557
v 0.58026990 -0.16182442 0.72663859
v 0.57611187 -0.16427391 0.72675098
v 0.58698115 -0.15955715 0.72386282
v 0.58112950 -0.16114956 0.72818295
v 0.58929876 -0.15936884 0.71971731
v 0.59047362 -0.15930715 0.71868971
v 0.59199270 -0.15935540 0.71762698
v 0.59268600 -0.16025620 0.71477197
v 0.57899018 -0.16823689 0.71410881
v 0.57881683 -0.16696040 0.85837496
v 0.57849217 -0.16669229 0.85557689
v 0.58341212 -0.16494925 0.85846915
v 0.58113615 -0.16578527 0.85840846
v 0.58060462 -0.16562272 0.85624562
v 0.58346586 -0.16454997 0.85628578
v 0.59424810 -0.16457801 0.86327699
v 0.59054094 -0.16445081 0.86105179
v 0.59858940 -0.16541529 0.86781833
v 0.56307459 -0.18382302 0.84960911
v 0.56160327 -0.18596401 0.84781123
v 0.56777573 -0.17092715 0.84072685
v 0.56001153 -0.18392709 0.82456517
v 0.56222222 -0.17854716 0.77709175
v 0.56368294 -0.17504854 0.73293083
v 0.56549369 -0.17266941 0.73113019
v 0.56308651 -0.17599112 0.73016366
v 0.56045414 -0.18026966 0.73206669
v 0.55978217 -0.18166046 0.72974101
v 0.55829636 -0.18717428 0.82479014
v 0.55774549 -0.18827332 0.82365499
v 0.55865981 -0.18417480 0.73174841
v 0.55705434 -0.18825296 0.72906828
v 0.55677361 -0.18915595 0.73306393
v 0.55716965 -0.18983036 0.72498419
v 0.55617283 -0.19152922 0.72999802
v 0.55662547 -0.19269583 0.72392022
v 0.56697827 -0.17120616 0.72943008
v 0.57100538 -0.16754704 0.72884843
v 0.56735247 -0.17058875 0.73352433
v 0.57374493 -0.16529672 0.73010133
v 0.57379613 -0.16524625 0.73297717
v 0.57770799 -0.16386993 0.79066844
v 0.57641985 -0.16353781 0.73009031
v 0.57808122 -0.16265312 0.73550121
v 0.57717681 -0.16467108 0.81383522
v 0.57962728 -0.16326985 0.81504811
v 0.58032236 -0.16141582 0.73134469
v 0.58081161 -0.16125486 0.73659404
v 0.58151755 -0.16270007 0.81900519
v 0.58339485 -0.16005583 0.73400578
v 0.58128309 -0.16254332 0.81459406
v 0.58413782 -0.15983891 0.72993932
v 0.57421173 -0.16741923 0.84161027
v 0.57015937 -0.16943640 0.84139593
v 0.56881047 -0.17025133 0.83961796
v 0.58447061 -0.16090233 0.79051839
v 0.60135126 -0.15979942 0.82969375
v 0.59655374 -0.16004584 0.83025728
v 0.60412813 -0.15980490 0.82945753
v 0.59290799 -0.16039282 0.82729201
v 0.59577406 -0.15877210 0.79101984
v 0.59624667 -0.15850025 0.78291876
v 0.59909108 -0.15850239 0.78234796
v 0.59939569 -0.15832571 0.77292457
v 0.59382617 -0.15887952 0.79033298
v 0.59337723 -0.15878908 0.78439805
v 0.60149422 -0.16019411 0.83389299
v 0.59610632 -0.16076304 0.83685754
v 0.60180459 -0.15830584 0.75410619
v 0.60338926 -0.15861039 0.76678656
v 0.60472963 -0.16017107 0.83266662
v 0.59021120 -0.16034349 0.81276241
v 0.59780201 -0.16167066 0.84554890
v 0.60048567 -0.16198062 0.84756300
v 0.59348370 -0.16213374 0.84712833
v 0.59296875 -0.16176917 0.84358264
v 0.58914089 -0.16263329 0.84745358
v 0.59348304 -0.16072202 0.83280255
v 0.59047692 -0.15937157 0.78966544
v 0.59117329 -0.15912011 0.78475829
v 0.59560635 -0.15769292 0.73675639
v 0.59244391 -0.15784819 0.73468483
v 0.59557611 -0.15763823 0.73178401
v 0.59064437 -0.15798512 0.72947136
v 0.59455930 -0.15768758 0.72714080
v 0.59292001 -0.15779980 0.72677031
v 0.58931319 -0.15825173 0.73553587
v 0.58889655 -0.15823177 0.73008509
v 0.59745906 -0.15774935 0.73389882
v 0.60163159 -0.15810053 0.73711957
v 0.60076207 -0.15804199 0.72941429
v 0.60277358 -0.15819348 0.73422135
v 0.58915409 -0.15832599 0.72711105
v 0.59076498 -0.16082993 0.82791828
v 0.59938638 -0.15807576 0.72673107
v 0.58798652 -0.16275731 0.84577758
v 0.58744496 -0.15968713 0.77645471
v 0.58850548 -0.16074646 0.81361830
v 0.58346832 -0.16200401 0.81750171
v 0.58294392 -0.16195629 0.81294359
v 0.58777075 -0.15997103 0.79030192
v 0.58604770 -0.16443062 0.85856382
v 0.58911163 -0.16423002 0.85912325
v 0.59385871 -0.16437723 0.86202108
v 0.59722942 -0.16454337 0.86403929
v 0.58810106 -0.16163718 0.82995989
v 0.58607299 -0.15914705 0.73707981
v 0.58981932 -0.15866356 0.72337440
v 0.59238619 -0.15843751 0.72236096
v 0.58627376 -0.15903205 0.73171500
v 0.58676118 -0.15900773 0.72784118
v 0.59602156 -0.15820255 0.72326110
v 0.60125632 -0.16488509 0.86615658
v 0.60401979 -0.16544592 0.86884018
v 0.60430470 -0.15840291 0.73722970
v 0.59450662 -0.15903072 0.71871976
v 0.60889976 -0.16300315 0.84857887
v 0.60635368 -0.16603666 0.86948827
v 0.63471165 -0.19141973 0.71504358
v 0.63564010 -0.20763971 0.71485140
v 0.63482846 -0.21209762 0.71533733
v 0.63396885 -0.21400354 0.71504198
v 0.63467002 -0.19728573 0.71400068
v 0.63284803 -0.18525047 0.71494359
v 0.63426969 -0.18884093 0.71518377
v 0.62923624 -0.17887723 0.71473917
v 0.62768227 -0.17680700 0.71445140
v 0.62468037 -0.17342438 0.71409310
v 0.61722687 -0.16681096 0.71411377
v 0.61997818 -0.16699334 0.85202682
v 0.62585089 -0.17099464 0.85120024
v 0.62085108 -0.16743888 0.85017322
v 0.62190995 -0.16859484 0.85395035
v 0.61996992 -0.16748930 0.85440537
v 0.62390619 -0.17058486 0.85499766
v 0.62637975 -0.17189591 0.85248747
v 0.62690054 -0.17386786 0.85648897
v 0.62969999 -0.17643197 0.85510744
v 0.63009625 -0.17780447 0.85763243
v 0.63486004 -0.19199369 0.86477371
v 0.63508389 -0.19294525 0.86421280
v 0.63592866 -0.20606790 0.71499999
v 0.63618600 -0.20169232 0.71573379
v 0.63741968 -0.20615803 0.71776594
v 0.63651396 -0.20806419 0.71629852
v 0.63698537 -0.20084261 0.71758080
v 0.63806690 -0.20388188 0.71971323
v 0.63671431 -0.19595149 0.71786780
v 0.63545663 -0.19207843 0.71593344
v 0.63671035 -0.19258075 0.71858153
v 0.63615650 -0.19028821 0.71789966
v 0.63753779 -0.19405707 0.72041885
v 0.63732623 -0.19020864 0.72123927
v 0.63457465 -0.18685852 0.71688435
v 0.63545050 -0.20954820 0.71495229
v 0.63772031 -0.20918519 0.71948659
v 0.63826293 -0.20771342 0.72028211
v 0.63472341 -0.19896962 0.71411604
v 0.63584798 -0.18658501 0.72028736
v 0.63666011 -0.18642572 0.72304860
v 0.63801386 -0.18759369 0.72723680
v 0.63810164 -0.19081414 0.72365708
v 0.63343390 -0.18313939 0.71798148
v 0.63270167 -0.18308167 0.71643193
v 0.63620296 -0.21096992 0.71718614
v 0.63681615 -0.18488331 0.72695346
v 0.63660430 -0.18294642 0.73046966
v 0.63792543 -0.18500912 0.73389782
v 0.63876382 -0.18790153 0.73223508
v 0.63878965 -0.18670872 0.73733181
v 0.63691205 -0.18196144 0.73714844
v 0.63452704 -0.18120522 0.72466642
v 0.63431090 -0.17877261 0.72890685
v 0.63553495 -0.18016112 0.73198792
v 0.63388415 -0.17619838 0.73534380
v 0.63359792 -0.17661271 0.73139719
v 0.63292960 -0.17898453 0.72339483
v 0.63211188 -0.17248275 0.73716645
v 0.63262126 -0.17329191 0.73786230
v 0.63205605 -0.17604064 0.72613569
v 0.63139819 -0.17422116 0.72898613
v 0.63141225 -0.17974945 0.71772693
v 0.62962902 -0.17593586 0.71902151
v 0.62850327 -0.17581012 0.71661976
v 0.63201160 -0.17234943 0.73813280
v 0.62856807 -0.17254942 0.72355303
v 0.62932362 -0.17270294 0.72571388
v 0.62714402 -0.17327643 0.71824135
v 0.62535426 -0.17223914 0.71654990
v 0.62514501 -0.17344054 0.71453735
v 0.62125569 -0.16947934 0.71399982
v 0.62461467 -0.17087370 0.71762524
v 0.63908960 -0.20203218 0.84121615
v 0.63813636 -0.20672918 0.84901331
v 0.63750918 -0.21086160 0.84892934
v 0.63784851 -0.20850810 0.85060375
v 0.63705419 -0.21350338 0.84640376
v 0.63659372 -0.21566482 0.84449580
v 0.63600409 -0.21741528 0.84368646
v 0.63849046 -0.20160900 0.84850335
v 0.63812765 -0.20434497 0.85187784
v 0.63761680 -0.20696151 0.85421063
v 0.63732167 -0.20945444 0.85263488
v 0.64064462 -0.20314361 0.80874165
v 0.64003957 -0.20941746 0.80680610
v 0.64058356 -0.20616001 0.80528279
v 0.64015829 -0.20911909 0.80290777
v 0.63961350 -0.21192199 0.80350893
v 0.63916228 -0.21352284 0.80687023
v 0.64091775 -0.20233562 0.80271049
v 0.63783289 -0.21789801 0.81193780
v 0.63846323 -0.21588144 0.80555413
v 0.63744966 -0.21931468 0.80898706
v 0.64064817 -0.19921510 0.81271432
v 0.64096180 -0.19934313 0.80445637
v 0.64078525 -0.19836612 0.80774615
v 0.63945458 -0.19905390 0.83506522
v 0.63869478 -0.19951843 0.84660466
v 0.63880493 -0.19786898 0.84470229
v 0.63651869 -0.21418406 0.84853789
v 0.63733994 -0.21915921 0.81277979
v 0.64010185 -0.19594130 0.81953032
v 0.63648859 -0.20989810 0.85604156
v 0.63910700 -0.19615266 0.83820487
v 0.63874559 -0.19484160 0.84294446
v 0.63957018 -0.19608157 0.82962162
v 0.64039337 -0.19465992 0.81255178
v 0.63822487 -0.19766670 0.84959470
v 0.63775438 -0.20198583 0.85389123
v 0.64065917 -0.19482246 0.80295248
v 0.63828091 -0.19247885 0.84685642
v 0.63648706 -0.20304687 0.86045558
v 0.63579852 -0.20328458 0.86354215
v 0.63746111 -0.19513957 0.85299866
v 0.63994298 -0.19136810 0.81252699
v 0.64020300 -0.19205315 0.80181325
v 0.63739808 -0.19235531 0.85171184
v 0.64026854 -0.20845881 0.73716428
v 0.64062102 -0.20505311 0.73637398
v 0.64069669 -0.20253360 0.73840624
v 0.64003747 -0.20683168 0.73120410
v 0.64013353 -0.20479240 0.73052259
v 0.64063791 -0.20050788 0.73638528
v 0.63964646 -0.20994600 0.73260735
v 0.63942753 -0.21188208 0.73644034
v 0.64049097 -0.19725670 0.73563998
v 0.64041576 -0.19573553 0.73852074
v 0.64026136 -0.19769196 0.73266367
v 0.63916220 -0.20647412 0.72480071
v 0.63854162 -0.21480039 0.73849788
v 0.63926561 -0.20872393 0.72817623
v 0.63836053 -0.20886671 0.72224593
v 0.64018424 -0.19346463 0.73555621
v 0.63889618 -0.20550094 0.72274946
v 0.63954118 -0.19713690 0.72810527
v 0.63866513 -0.21415758 0.73609616
v 0.63974766 -0.19028379 0.73844752
v 0.63759000 -0.21740756 0.73737254
v 0.63923218 -0.19101988 0.72950723
v 0.63930693 -0.19282380 0.72838294
v 0.63883173 -0.19411298 0.72556790
v 0.63849546 -0.21253859 0.73034631
v 0.63965123 -0.19040134 0.73507176
v 0.63800037 -0.19164862 0.84763192
v 0.63849709 -0.18676710 0.81632734
v 0.63927248 -0.18854837 0.80023310
v 0.63649109 -0.21897030 0.73265634
v 0.63578307 -0.21883144 0.72791980
v 0.63644273 -0.22154949 0.81095380
v 0.63900378 -0.18769323 0.80617064
v 0.63908494 -0.18800855 0.81074433
v 0.63799608 -0.18518056 0.81681264
v 0.63567883 -0.22031534 0.73063432
v 0.63748090 -0.21068407 0.72090379
v 0.63429739 -0.22525246 0.79312313
v 0.63089916 -0.23062585 0.83460212
v 0.63107287 -0.23059240 0.83187593
v 0.63617966 -0.22046081 0.73592039
v 0.63594585 -0.22111530 0.73875513
v 0.63009615 -0.22151633 0.86384465
v 0.63480154 -0.21973489 0.72529912
v 0.63319239 -0.21900603 0.71916190
v 0.63351906 -0.21671879 0.71683355
v 0.63441167 -0.21460429 0.71661392
v 0.63247523 -0.22199220 0.85037645
v 0.62824316 -0.22516423 0.86375979
v 0.62925690 -0.22290811 0.86458552
v 0.63506087 -0.22209992 0.73315963
v 0.63444826 -0.22179761 0.72785202
v 0.63018808 -0.23203276 0.83387156
v 0.63438017 -0.22391950 0.73683496
v 0.63367063 -0.22514205 0.73880930
v 0.62990632 -0.23234777 0.83118511
v 0.63198642 -0.22030767 0.71736650
v 0.62503040 -0.23258471 0.85420093
v 0.62690089 -0.22688864 0.86395623
v 0.62858359 -0.17095355 0.81211979
v 0.63175006 -0.17432123 0.81227273
v 0.63065968 -0.17320429 0.81580746
v 0.62677327 -0.16945620 0.81553488
v 0.62773350 -0.17039572 0.81953873
v 0.62793674 -0.17079162 0.82185725
v 0.63011678 -0.17295493 0.82055066
v 0.63278380 -0.17586530 0.81775653
v 0.63331784 -0.17709429 0.82124101
v 0.63143875 -0.17815316 0.85109486
v 0.62863006 -0.17435410 0.85126046
v 0.63512449 -0.17920656 0.81247681
v 0.63367873 -0.18118456 0.84777106
v 0.63544506 -0.17998529 0.81776102
v 0.63608263 -0.18080247 0.81052578
v 0.63092069 -0.17876154 0.85699485
v 0.63251961 -0.18075382 0.85413070
v 0.63703751 -0.18277615 0.81675787
v 0.63763316 -0.18385342 0.80383105
v 0.63542571 -0.18364953 0.84026020
v 0.63637510 -0.18552184 0.83878802
v 0.63812938 -0.18522500 0.81334505
v 0.63771399 -0.19016336 0.84526268
v 0.63658882 -0.18931671 0.85060007
v 0.61733298 -0.16523920 0.84832197
v 0.61529527 -0.16407097 0.84583961
v 0.62470521 -0.16807655 0.82259622
v 0.62218098 -0.16598162 0.82075998
v 0.62449595 -0.16766721 0.81843700
v 0.61859588 -0.16385767 0.82391168
v 0.61566034 -0.16249778 0.82734356
v 0.61510188 -0.16221472 0.82451921
v 0.61148178 -0.16092368 0.82511885
v 0.61101967 -0.16101143 0.82947599
v 0.61294262 -0.16365267 0.84844449
v 0.61552737 -0.16476197 0.85092701
v 0.60843929 -0.16056901 0.83125346
v 0.60709680 -0.15929331 0.77037975
v 0.60918795 -0.16044447 0.82696078
v 0.60670668 -0.16005933 0.82951153
v 0.60615635 -0.15887622 0.75069485
v 0.60591553 -0.15889368 0.75554436
v 0.60242300 -0.15867208 0.77577356
v 0.60763119 -0.16014296 0.82628077
v 0.61026667 -0.15957985 0.73679383
v 0.61762125 -0.16226671 0.73711879
v 0.62170230 -0.16457382 0.73818220
v 0.62018264 -0.16363507 0.73620829
v 0.62342777 -0.16570955 0.73661284
v 0.62033329 -0.16397713 0.73228247
v 0.62268636 -0.16587971 0.72901184
v 0.62036517 -0.16440304 0.72832187
v 0.62449012 -0.16696130 0.73136029
v 0.62111329 -0.16577390 0.72375030
v 0.62407253 -0.16731583 0.72706750
v 0.62857759 -0.16923725 0.73790311
v 0.62462228 -0.16860159 0.72399921
v 0.62660931 -0.16972891 0.72657363
v 0.62264955 -0.16900672 0.71760862
v 0.62066265 -0.16762720 0.71700794
v 0.61059654 -0.18675164 0.93777921
v 0.61368265 -0.18967644 0.93826776
v 0.61496731 -0.19057454 0.93642095
v 0.61573929 -0.19272289 0.93880839
v 0.61746287 -0.19598484 0.93868379
v 0.61377867 -0.19106696 0.94029355
v 0.61894109 -0.19837062 0.93615257
v 0.61841917 -0.19903548 0.93899978
v 0.61632242 -0.19516674 0.94023380
v 0.61131447 -0.18845728 0.94006520
v 0.61745722 -0.19812693 0.94036010
v 0.61918989 -0.20162167 0.93810238
v 0.61857887 -0.20219635 0.93991434
v 0.61948339 -0.20450126 0.93721441
v 0.60867843 -0.18550530 0.93759379
v 0.61892933 -0.20495775 0.93916990
v 0.61907573 -0.20708250 0.93741589
v 0.61497478 -0.19495772 0.94151142
v 0.61830733 -0.20828850 0.93910917
v 0.61823346 -0.20614907 0.94013579
v 0.61668578 -0.19904916 0.94141660
v 0.61816054 -0.21020071 0.93778640
v 0.61715201 -0.20495860 0.94144474
v 0.61723323 -0.21280960 0.93609285
v 0.61622145 -0.21388587 0.93797479
v 0.60682280 -0.18490063 0.93862582
v 0.60608145 -0.18398277 0.93634994
v 0.60616367 -0.18526720 0.93993717
v 0.60337970 -0.18390085 0.93881468
v 0.60114702 -0.18317054 0.93762076
v 0.59933350 -0.18296067 0.93743098
v 0.59617155 -0.18329341 0.93778788
v 0.59394034 -0.18375406 0.93778129
v 0.56836619 -0.22250825 0.71505197
v 0.56938270 -0.22361279 0.71492616
v 0.56655594 -0.22343812 0.71686977
v 0.56321440 -0.21633251 0.71601686
v 0.56230218 -0.21651370 0.71708543
v 0.56958086 -0.22676823 0.71736112
v 0.56437749 -0.22232144 0.71935660
v 0.56112442 -0.21303370 0.71659020
v 0.56994760 -0.22819671 0.71876430
v 0.56630482 -0.22448328 0.71853843
v 0.57366416 -0.22474825 0.71363040
v 0.55932967 -0.20729478 0.71714154
v 0.55861177 -0.20380345 0.71692937
v 0.55975589 -0.20330778 0.71549701
v 0.55912443 -0.20969019 0.71835247
v 0.56116358 -0.21541728 0.71827668
v 0.56029921 -0.21310590 0.71819145
v 0.56347670 -0.22335859 0.72229635
v 0.57388951 -0.23220811 0.71948364
v 0.57575032 -0.23258842 0.71791394
v 0.57848652 -0.23497984 0.71881517
v 0.58186826 -0.23651266 0.71785230
v 0.57576622 -0.23398038 0.72021824
v 0.57417918 -0.23422267 0.72270747
v 0.56648970 -0.22723357 0.72274509
v 0.56843685 -0.22950169 0.72352544
v 0.57775950 -0.23582988 0.72166554
v 0.57190959 -0.23315306 0.72507793
v 0.56666299 -0.22858637 0.72539813
v 0.57244046 -0.23396175 0.72702771
v 0.57087157 -0.23298173 0.72864401
v 0.55868054 -0.21540687 0.81156053
v 0.55972775 -0.21890340 0.81186508
v 0.55773451 -0.21046352 0.81158001
v 0.55990939 -0.21783994 0.82923402
v 0.55964939 -0.21635963 0.83261229
v 0.55887475 -0.21169774 0.83440861
v 0.55993356 -0.21591521 0.83841403
v 0.56050634 -0.21907438 0.83694735
v 0.56048516 -0.21970516 0.82902901
v 0.55726476 -0.20753220 0.80776055
v 0.55856227 -0.20885090 0.83805999
v 0.55746033 -0.20819388 0.81160091
v 0.55680315 -0.21163549 0.74870719
v 0.55681614 -0.21224770 0.73997625
v 0.55571220 -0.20666683 0.73975601
v 0.55778194 -0.20385893 0.82968831
v 0.55698017 -0.20382705 0.80475423
v 0.55714038 -0.20322678 0.81200819
v 0.55544982 -0.20291111 0.73988847
v 0.55895860 -0.20691688 0.84787853
v 0.55853084 -0.20401277 0.84748454
v 0.55977286 -0.21137107 0.84680200
v 0.55955678 -0.20808147 0.85082135
v 0.56042730 -0.21226271 0.85051698
v 0.56145991 -0.21644282 0.85138758
v 0.55926651 -0.21752754 0.80841615
v 0.55830822 -0.21643067 0.75449049
v 0.55700398 -0.20070139 0.81035981
v 0.55700965 -0.19928633 0.81259320
v 0.56232432 -0.21958191 0.85142070
v 0.55776166 -0.21506850 0.74133259
v 0.55906881 -0.21834131 0.75786351
v 0.55653983 -0.21067060 0.73404606
v 0.55695337 -0.21247477 0.73413606
v 0.55668847 -0.21090964 0.73091719
v 0.55772835 -0.21493918 0.73861308
v 0.55556211 -0.20287073 0.73418725
v 0.55568423 -0.20203176 0.73039835
v 0.55695216 -0.21155709 0.72947336
v 0.55537694 -0.19780151 0.73370748
v 0.55750357 -0.21016915 0.72383522
v 0.55602466 -0.20218032 0.72796342
v 0.55864429 -0.20014259 0.84751468
v 0.55629582 -0.20145721 0.72561259
v 0.55567802 -0.19614116 0.72891819
v 0.55557058 -0.19596870 0.73583640
v 0.55875733 -0.19719555 0.84715027
v 0.55904178 -0.20421335 0.84985405
v 0.55574410 -0.19389524 0.73167053
v 0.55658913 -0.19476918 0.72318818
v 0.55679045 -0.20062930 0.72294381
v 0.55635498 -0.19179050 0.72693469
v 0.56258830 -0.21237164 0.86158739
v 0.56347316 -0.21629800 0.86217531
v 0.56208975 -0.20776722 0.86192097
v 0.56160834 -0.20106055 0.86222396
v 0.56407157 -0.21872962 0.86158903
v 0.55731415 -0.21291260 0.73058381
v 0.55780311 -0.20215197 0.71895246
v 0.55817981 -0.20382240 0.71784399
v 0.55832914 -0.21023403 0.72046526
v 0.55756814 -0.19766522 0.71986239
v 0.55734415 -0.19563170 0.72076721
v 0.55772659 -0.21221929 0.72595566
v 0.56081473 -0.22152625 0.81172230
v 0.55921356 -0.21887138 0.74034304
v 0.55823930 -0.21600967 0.73618919
v 0.56192032 -0.22115590 0.84184346
v 0.56283679 -0.22094519 0.85102012
v 0.56259188 -0.22129551 0.84769336
v 0.56139074 -0.22112536 0.83546262
v 0.56044059 -0.22134710 0.74072863
v 0.55852270 -0.21298058 0.72352943
v 0.56088428 -0.22054495 0.72909018
v 0.56414676 -0.22200507 0.85399892
v 0.56366816 -0.22276902 0.84994793
v 0.56203753 -0.22306070 0.73142203
v 0.56207186 -0.22377551 0.81144940
v 0.56347216 -0.22332649 0.84438117
v 0.56354482 -0.22611957 0.80869143
v 0.56242209 -0.22480825 0.74060523
v 0.56420221 -0.22723394 0.77471610
v 0.56731606 -0.22257179 0.86513852
v 0.56519819 -0.22845601 0.81154547
v 0.56412551 -0.22529077 0.83223517
v 0.56470416 -0.22796645 0.75702638
v 0.56548182 -0.22579255 0.84745566
v 0.56481729 -0.22808508 0.74053225
v 0.56531770 -0.22596232 0.84311303
v 0.56279577 -0.22325121 0.72453117
v 0.56371917 -0.22509604 0.72490284
v 0.56343985 -0.22429083 0.72367328
v 0.56581144 -0.22777543 0.72656787
v 0.56585294 -0.22514248 0.85182617
v 0.56822612 -0.22414199 0.86372733
v 0.57081346 -0.22544219 0.86915217
v 0.56762096 -0.22863446 0.84609671
v 0.56823782 -0.23228696 0.81099131
v 0.56721502 -0.23099202 0.74067497
v 0.56774527 -0.22788723 0.85005239
v 0.57174925 -0.23233121 0.85086959
v 0.56962079 -0.23119635 0.84176440
v 0.56958607 -0.23087878 0.84490781
v 0.57135958 -0.23242835 0.84713007
v 0.57279816 -0.22688974 0.87096125
v 0.57426370 -0.23487886 0.84909322
v 0.57578155 -0.23594127 0.85037650
v 0.61159670 -0.16832520 0.87306466
v 0.60873647 -0.16729040 0.87248367
v 0.63247937 -0.18781120 0.86693577
v 0.63121033 -0.19725041 0.71368539
v 0.63313571 -0.19817751 0.71372160
v 0.63149651 -0.19653764 0.71370275
v 0.60357094 -0.23848022 0.71483368
v 0.59995121 -0.23868410 0.71490430
v 0.59906886 -0.23971466 0.71647059
v 0.60384667 -0.23974829 0.71690602
v 0.59328682 -0.24022092 0.71826856
v 0.59119456 -0.23858531 0.71575362
v 0.59144458 -0.24039802 0.71907404
v 0.59341554 -0.24128476 0.72048580
v 0.58895489 -0.24014209 0.71956510
v 0.58970071 -0.24073108 0.72061242
v 0.61088552 -0.23813380 0.71717744
v 0.61117581 -0.23916556 0.71971618
v 0.61344579 -0.23708680 0.71721142
v 0.61464077 -0.23616868 0.71648020
v 0.58130152 -0.23713500 0.71988912
v 0.58940637 -0.24310709 0.82606231
v 0.59124374 -0.24340467 0.82995654
v 0.59420375 -0.24382721 0.83310460
v 0.59638448 -0.24354072 0.83632684
v 0.59479146 -0.24358328 0.83632129
v 0.60085142 -0.24248178 0.84286866
v 0.60186416 -0.24193098 0.84715362
v 0.60535066 -0.24128157 0.84990581
v 0.59862407 -0.24238702 0.84409769
v 0.61258625 -0.23974850 0.85310573
v 0.61403961 -0.23966738 0.85109131
v 0.61712337 -0.23871989 0.85461501
v 0.61364145 -0.23931256 0.85508473
v 0.60926900 -0.23991246 0.85482900
v 0.60558691 -0.24080660 0.85227214
v 0.61466449 -0.23866101 0.85749205
v 0.61742009 -0.23805239 0.85785286
v 0.60130311 -0.24126111 0.85088633
v 0.61835757 -0.23822500 0.85488533
v 0.59546997 -0.24086983 0.85156368
v 0.59156177 -0.24092129 0.85012237
v 0.58934458 -0.24084737 0.84895832
v 0.59270158 -0.24355372 0.83366280
v 0.58454026 -0.24007242 0.84876197
v 0.60656229 -0.24446156 0.81222540
v 0.60027897 -0.24487823 0.81129795
v 0.60901785 -0.24404791 0.80981263
v 0.60897668 -0.24398184 0.81379196
v 0.61127291 -0.24345774 0.81366811
v 0.61374489 -0.24289842 0.81120838
v 0.59772805 -0.24470811 0.81207681
v 0.59752599 -0.24472480 0.80997544
v 0.60193455 -0.24383662 0.75120355
v 0.61267399 -0.24224321 0.75720684
v 0.60167074 -0.24374964 0.74749226
v 0.60484195 -0.24352719 0.74445907
v 0.60769314 -0.24312637 0.74407310
v 0.61095014 -0.24229364 0.74558200
v 0.59999900 -0.24352995 0.74259004
v 0.60015349 -0.24377238 0.75344755
v 0.60330959 -0.24336567 0.73555052
v 0.60418286 -0.24324046 0.73315395
v 0.61006507 -0.24197839 0.73585509
v 0.60683969 -0.24245539 0.73191302
v 0.60173922 -0.24313654 0.73178508
v 0.60249639 -0.24301768 0.72966458
v 0.60347157 -0.24256040 0.72703492
v 0.61212686 -0.24127936 0.73408640
v 0.61613241 -0.24009769 0.73633628
v 0.61362772 -0.24131921 0.74333104
v 0.59418083 -0.24326674 0.74695239
v 0.60875296 -0.24153975 0.72877472
v 0.61309107 -0.24028436 0.72858515
v 0.61273625 -0.23989530 0.72502450
v 0.60566623 -0.24161250 0.72450722
v 0.59358447 -0.24305620 0.73963157
v 0.59429100 -0.24291857 0.73179888
v 0.59483725 -0.24254935 0.72651836
v 0.59472370 -0.24198993 0.72280122
v 0.60442988 -0.24144035 0.72271357
v 0.59363250 -0.24430871 0.81070740
v 0.59106654 -0.24265052 0.73594597
v 0.58907967 -0.24243889 0.73909595
v 0.59074771 -0.24284641 0.74658433
v 0.58937091 -0.24264911 0.74985853
v 0.60784167 -0.24060065 0.72201156
v 0.60113587 -0.24078067 0.71891862
v 0.60442363 -0.24067864 0.72002274
v 0.59131748 -0.24235030 0.72951617
v 0.59198794 -0.24210526 0.72538808
v 0.61609802 -0.24206384 0.81072128
v 0.58903132 -0.24338690 0.81063465
v 0.59092914 -0.24137877 0.72223677
v 0.58215404 -0.24110039 0.73501224
v 0.58650356 -0.24222009 0.82792046
v 0.58610163 -0.24222765 0.82593395
v 0.59022698 -0.24298785 0.83192013
v 0.58236058 -0.23930903 0.85033725
v 0.58121412 -0.23898846 0.84909366
v 0.58332979 -0.24150257 0.81092240
v 0.58216023 -0.24044322 0.73186368
v 0.58213445 -0.24059925 0.82682557
v 0.57924144 -0.23813856 0.84711630
v 0.57929758 -0.23975572 0.81077092
v 0.57726477 -0.23706390 0.84936608
v 0.57862470 -0.23931916 0.73567323
v 0.58064495 -0.24029172 0.73401160
v 0.57495696 -0.23714260 0.74101941
v 0.57383486 -0.23674684 0.81114868
v 0.61985685 -0.23701323 0.85755844
v 0.57172655 -0.23556478 0.81085357
v 0.57635427 -0.23782695 0.73567459
v 0.57104237 -0.23441802 0.74215976
v 0.57063961 -0.23400638 0.74017446
v 0.59638789 -0.22322318 0.93730897
v 0.59912643 -0.22325923 0.93856332
v 0.60162002 -0.22353667 0.93755625
v 0.59508834 -0.22240745 0.93913587
v 0.59244498 -0.22177781 0.93828662
v 0.60472433 -0.22310055 0.93663008
v 0.60170149 -0.22295103 0.93910967
v 0.58949404 -0.22052065 0.93702107
v 0.60576663 -0.22251397 0.93820985
v 0.60553759 -0.22225824 0.93901927
v 0.59359047 -0.22153793 0.93982139
v 0.59069800 -0.22047877 0.93914192
v 0.60769424 -0.22204577 0.93684555
v 0.58783768 -0.21885171 0.93847496
v 0.60823408 -0.22133926 0.93849061
v 0.58914115 -0.21901395 0.93985820
v 0.60406086 -0.22175450 0.94019284
v 0.58502395 -0.21651689 0.93829866
v 0.58655723 -0.21694961 0.93995564
v 0.61066972 -0.22026041 0.93702683
v 0.58306064 -0.21495924 0.93657653
v 0.60846694 -0.22073205 0.93946656
v 0.58342391 -0.21432937 0.93921324
v 0.61064899 -0.21935944 0.93928359
v 0.58145262 -0.21192315 0.93819626
v 0.58237227 -0.21175127 0.94023231
v 0.58137892 -0.20959451 0.94013385
v 0.58043203 -0.20934149 0.93828511
v 0.57970148 -0.20748244 0.93767024
v 0.62102291 -0.23235865 0.71683514
v 0.61941881 -0.23228061 0.71513357
v 0.62177437 -0.23277173 0.71912623
v 0.61511930 -0.23683255 0.71861461
v 0.61431301 -0.23808639 0.72068621
v 0.61579047 -0.23821834 0.72391792
v 0.61449116 -0.23900076 0.72377642
v 0.62128756 -0.23605449 0.72852987
v 0.62336978 -0.23357237 0.72496072
v 0.62510488 -0.23178831 0.72321136
v 0.62580662 -0.23284855 0.72832682
v 0.61941762 -0.23768789 0.73079363
v 0.62304660 -0.23089161 0.71723152
v 0.62205419 -0.23654600 0.73369215
v 0.61487202 -0.23980159 0.72941656
v 0.62702492 -0.23262602 0.73199385
v 0.62854774 -0.23110169 0.73079339
v 0.62666864 -0.23063878 0.72397369
v 0.62891501 -0.23022520 0.72896381
v 0.62084221 -0.23757258 0.73599751
v 0.61790290 -0.23920358 0.73501226
v 0.62527831 -0.22899163 0.71751809
v 0.62236694 -0.23657108 0.73846856
v 0.62858217 -0.22885031 0.72454023
v 0.62899862 -0.23108416 0.73608261
v 0.62997164 -0.22975670 0.73181145
v 0.61862184 -0.24010798 0.76000615
v 0.62001022 -0.23927061 0.76106374
v 0.61622054 -0.24119409 0.75997405
v 0.62259315 -0.23735411 0.76198193
v 0.62148167 -0.23883535 0.80925981
v 0.61942881 -0.24043190 0.81138234
v 0.63294109 -0.22779770 0.79604226
v 0.63113905 -0.22871537 0.73709083
v 0.63229126 -0.22713400 0.73491890
v 0.63183844 -0.22723987 0.73067031
v 0.63051939 -0.22668180 0.72490573
v 0.63205199 -0.22609807 0.72842430
v 0.63450826 -0.22494522 0.80936497
v 0.63329798 -0.22523386 0.73190518
v 0.62665966 -0.22732178 0.71757326
v 0.63590245 -0.22251703 0.80777196
v 0.63168831 -0.22417892 0.72308840
v 0.63007593 -0.22501145 0.72097563
v 0.62830161 -0.22564263 0.71820807
v 0.63308299 -0.22229865 0.72390126
v 0.63029773 -0.22255761 0.71745341
v 0.62313405 -0.23647851 0.84281758
v 0.62903154 -0.23302186 0.83427647
v 0.62319361 -0.23465730 0.85431074
v 0.61216226 -0.21886170 0.93770001
v 0.61435429 -0.21678866 0.93742782
v 0.61345676 -0.21658707 0.93948208
v 0.61550494 -0.21428614 0.93907043
v 0.61509965 -0.21378676 0.94018996
v 0.56719176 -0.21560351 0.71418070
v 0.57263384 -0.22611781 0.71451366
v 0.57206973 -0.21653247 0.71375501
v 0.56467123 -0.18086828 0.71477599
v 0.56055429 -0.19084444 0.71510455
v 0.55963037 -0.19830145 0.71545482
v 0.56022703 -0.20563758 0.71547856
v 0.57645583 -0.22524592 0.71365676
v 0.56993448 -0.22240578 0.71423587
v 0.60602961 -0.16230481 0.71436165
v 0.60157313 -0.16165451 0.71444589
v 0.56548725 -0.21560776 0.71437372
v 0.57182665 -0.22311419 0.71378395
v 0.57061513 -0.21900085 0.71382028
v 0.57868830 -0.22289977 0.71347419
v 0.57156766 -0.22390294 0.71400036
v 0.60942219 -0.16298577 0.71465552
v 0.61090844 -0.16371661 0.71445390
v 0.61979334 -0.16465704 0.72498890
v 0.61770542 -0.16569747 0.71700492
v 0.61634724 -0.16292945 0.72442896
v 0.61617724 -0.16465505 0.71787318
v 0.61341971 -0.16287061 0.71961480
v 0.61693431 -0.16249154 0.72800343
v 0.61397138 -0.16143601 0.72698910
v 0.61093823 -0.16109064 0.72319647
v 0.61377190 -0.16409443 0.71649108
v 0.61000423 -0.16227017 0.71706467
v 0.60779209 -0.16103182 0.71912110
v 0.61416784 -0.16109215 0.73050638
v 0.60669391 -0.16152128 0.71647855
v 0.60613285 -0.15964625 0.72370625
v 0.60999868 -0.15968548 0.73085662
v 0.61699506 -0.16224776 0.73134518
v 0.61341350 -0.16058550 0.73545282
v 0.60649101 -0.15890756 0.73044810
v 0.60388269 -0.16034900 0.71853919
v 0.60293247 -0.15976574 0.71978451
v 0.60770917 -0.15897094 0.73345903
v 0.60204251 -0.15884958 0.72378023
v 0.60347753 -0.15864450 0.72695801
v 0.59848011 -0.15893188 0.72091663
v 0.59875412 -0.15979447 0.71770452
v 0.60143702 -0.16084469 0.71608731
v 0.59434985 -0.16029931 0.71479517
v 0.61311424 -0.16492309 0.71428865
v 0.58377408 -0.19065591 0.93659223
v 0.58293129 -0.19246074 0.93856581
v 0.58658535 -0.18814205 0.93842296
v 0.57937118 -0.20174703 0.93790440
v 0.59035047 -0.16054943 0.71508046
v 0.57404722 -0.17025080 0.71462826
f 727 323 318
f 644 225 655
f 216 149 148
f 727 936 726
f 204 931 324
f 821 767 838
f 634 644 655
f 224 215 216
f 225 215 224
f 216 217 224
f 224 222 225
f 224 217 222
f 214 149 216
f 216 215 214
f 208 205 117
f 584 583 207
f 582 211 583
f 595 936 929
f 929 125 595
f 727 726 728
f 127 936 126
f 126 936 727
f 716 721 722
f 719 721 716
f 855 716 722
f 131 139 737
f 219 222 216
f 192 931 204
f 388 409 412
f 410 422 411
f 411 409 410
f 422 409 411
f 399 409 388
f 388 401 399
f 565 427 563
f 518 519 326
f 326 496 518
f 516 325 522
f 318 323 322
f 318 322 319
f 546 547 373
f 896 897 898
f 490 485 481
f 777 895 773
f 773 895 814
f 833 917 857
f 15 24 46
f 16 24 15
f 16 3 24
f 13 6 8
f 8 6 7
f 834 828 722
f 722 721 834
f 834 721 719
f 823 819 825
f 830 817 829
f 746 748 766
f 766 748 767
f 821 819 818
f 818 767 821
f 765 748 764
f 767 748 765
f 764 838 765
f 765 838 767
f 655 225 661
f 216 222 218
f 218 217 216
f 222 217 218
f 225 222 223
f 223 226 225
f 154 215 225
f 253 273 272
f 724 578 723
f 207 208 121
f 121 584 207
f 121 208 117
f 207 583 297
f 309 266 269
f 213 582 309
f 553 552 561
f 125 929 124
f 124 936 127
f 124 929 936
f 142 126 727
f 147 142 727
f 144 142 147
f 184 169 204
f 149 214 119
f 119 214 215
f 119 148 149
f 215 154 119
f 722 828 845
f 719 716 718
f 628 629 616
f 616 629 641
f 641 617 616
f 629 617 641
f 618 628 616
f 630 625 634
f 630 618 625
f 628 618 630
f 629 628 630
f 634 625 632
f 624 623 617
f 640 623 645
f 595 125 123
f 123 139 595
f 599 597 596
f 232 234 233
f 220 234 232
f 216 234 220
f 220 219 216
f 216 250 236
f 236 234 216
f 236 233 234
f 207 297 210
f 210 297 272
f 210 208 207
f 241 246 245
f 931 192 932
f 932 192 193
f 932 193 203
f 203 966 932
f 932 966 931
f 421 422 419
f 419 412 421
f 417 409 422
f 417 412 409
f 422 421 417
f 417 421 412
f 405 399 401
f 401 434 405
f 410 409 405
f 409 399 405
f 53 46 24
f 336 563 427
f 556 507 555
f 334 555 507
f 519 518 520
f 520 547 519
f 495 547 520
f 496 495 520
f 520 518 496
f 326 519 327
f 327 325 326
f 519 325 327
f 329 723 566
f 566 552 329
f 521 325 519
f 521 522 325
f 521 537 522
f 519 538 521
f 353 727 318
f 321 319 322
f 385 322 323
f 379 321 322
f 322 385 379
f 344 338 318
f 367 368 361
f 318 319 320
f 547 546 544
f 545 546 548
f 548 550 545
f 947 954 946
f 967 324 931
f 915 914 898
f 833 914 915
f 485 490 916
f 833 915 916
f 916 915 485
f 797 740 873
f 787 791 786
f 770 777 773
f 780 777 770
f 781 777 780
f 780 786 781
f 781 786 791
f 793 781 791
f 895 777 793
f 777 781 793
f 846 840 843
f 849 845 842
f 842 828 821
f 842 845 828
f 772 770 773
f 771 770 772
f 755 772 773
f 773 814 755
f 755 754 771
f 771 772 755
f 491 490 481
f 918 916 490
f 918 576 920
f 490 491 918
f 918 917 833
f 833 916 918
f 481 576 918
f 918 491 481
f 45 54 74
f 4 16 15
f 3 16 4
f 9 1 7
f 828 825 826
f 822 819 821
f 822 825 819
f 822 826 825
f 821 828 822
f 828 826 822
f 823 825 827
f 827 825 828
f 829 817 827
f 827 817 823
f 800 788 784
f 820 766 767
f 767 818 820
f 664 661 225
f 664 660 655
f 655 661 664
f 173 223 222
f 29 34 21
f 38 19 45
f 29 19 38
f 23 19 13
f 23 54 45
f 45 19 23
f 225 156 155
f 155 154 225
f 156 154 155
f 150 671 971
f 273 253 255
f 289 272 255
f 272 273 255
f 255 274 289
f 312 266 309
f 309 526 312
f 313 526 309
f 527 724 723
f 526 313 527
f 527 313 724
f 723 329 527
f 527 325 516
f 527 329 325
f 211 582 300
f 582 213 300
f 262 269 266
f 252 253 262
f 127 126 729
f 729 124 127
f 729 730 124
f 141 142 144
f 489 147 317
f 410 405 435
f 435 405 434
f 410 442 425
f 425 422 410
f 902 901 892
f 885 902 892
f 903 902 885
f 933 137 926
f 636 671 658
f 644 631 636
f 658 225 636
f 225 644 636
f 216 148 969
f 148 119 969
f 969 968 216
f 855 856 860
f 860 856 96
f 851 855 722
f 722 845 851
f 851 856 855
f 851 845 849
f 719 718 717
f 682 681 651
f 616 617 619
f 617 623 619
f 635 636 626
f 626 636 631
f 655 660 653
f 644 634 643
f 634 632 643
f 633 632 625
f 625 631 633
f 633 643 632
f 633 631 644
f 644 643 633
f 623 640 637
f 669 640 645
f 808 817 806
f 784 788 785
f 785 779 784
f 780 779 785
f 785 786 780
f 787 786 785
f 734 737 139
f 139 123 734
f 734 123 125
f 138 588 589
f 688 676 600
f 601 676 599
f 600 676 601
f 595 923 937
f 937 137 933
f 138 137 585
f 138 597 928
f 597 598 928
f 928 137 138
f 928 598 137
f 830 743 824
f 817 830 824
f 738 736 816
f 816 817 738
f 817 824 738
f 738 743 737
f 738 824 743
f 787 785 790
f 590 593 594
f 133 593 590
f 931 966 965
f 965 966 964
f 956 954 536
f 232 233 166
f 158 157 166
f 249 248 241
f 241 240 249
f 249 250 216
f 216 205 249
f 205 206 249
f 176 166 233
f 158 166 176
f 237 240 241
f 241 239 237
f 237 249 240
f 251 246 295
f 295 246 294
f 295 296 251
f 294 296 295
f 289 274 267
f 267 296 289
f 274 296 267
f 293 294 289
f 289 296 293
f 293 296 294
f 292 296 274
f 251 296 292
f 294 246 244
f 244 210 294
f 244 246 241
f 241 248 244
f 291 272 289
f 289 210 291
f 291 210 272
f 289 294 301
f 301 210 289
f 294 210 301
f 302 246 251
f 302 245 246
f 251 292 302
f 302 292 283
f 241 245 243
f 243 245 242
f 243 239 241
f 242 239 243
f 257 277 261
f 170 157 158
f 170 161 157
f 158 194 170
f 170 194 193
f 193 192 191
f 191 170 193
f 973 170 191
f 191 192 204
f 204 169 191
f 482 576 481
f 575 576 482
f 390 415 392
f 415 393 392
f 392 393 406
f 481 485 471
f 415 475 394
f 394 393 415
f 404 403 400
f 404 392 406
f 404 400 390
f 390 392 404
f 433 434 401
f 391 400 401
f 390 400 391
f 428 427 565
f 565 397 428
f 428 397 427
f 76 46 84
f 46 53 84
f 89 95 68
f 563 336 335
f 553 555 554
f 554 334 553
f 555 334 554
f 553 332 331
f 331 552 553
f 326 552 331
f 361 368 362
f 362 356 361
f 363 356 362
f 366 365 363
f 458 365 452
f 431 425 452
f 328 329 552
f 326 325 328
f 325 329 328
f 523 537 956
f 522 537 523
f 526 525 528
f 266 312 528
f 528 312 526
f 318 338 337
f 443 437 450
f 450 455 443
f 324 941 386
f 386 385 323
f 323 727 386
f 727 728 386
f 386 728 726
f 204 324 386
f 386 936 204
f 386 726 936
f 377 379 378
f 381 378 383
f 383 378 379
f 343 341 338
f 338 344 343
f 343 344 345
f 345 347 343
f 314 320 344
f 314 344 318
f 318 320 314
f 540 538 519
f 519 547 540
f 545 941 940
f 324 967 939
f 931 938 939
f 939 967 931
f 948 939 938
f 948 941 324
f 324 939 948
f 381 548 549
f 549 546 373
f 549 548 546
f 942 946 945
f 945 940 942
f 942 944 947
f 947 946 942
f 942 940 941
f 951 954 956
f 951 946 954
f 956 537 951
f 537 955 951
f 945 946 951
f 951 955 945
f 964 963 959
f 949 948 938
f 947 944 949
f 949 950 947
f 896 891 488
f 485 915 488
f 897 896 488
f 898 897 488
f 488 915 898
f 892 901 900
f 900 891 892
f 900 488 891
f 882 891 896
f 894 896 898
f 795 791 787
f 787 790 795
f 881 797 873
f 794 807 799
f 799 800 794
f 774 769 746
f 774 775 769
f 784 779 776
f 776 778 784
f 769 775 776
f 775 778 776
f 833 857 852
f 852 850 833
f 846 850 852
f 833 850 760
f 760 850 846
f 759 755 760
f 846 843 760
f 760 840 759
f 760 843 840
f 762 814 898
f 762 755 814
f 898 914 762
f 762 914 833
f 833 760 762
f 762 760 755
f 844 840 846
f 89 854 847
f 846 852 847
f 847 844 846
f 854 844 847
f 64 68 37
f 64 854 89
f 89 68 64
f 917 918 919
f 919 918 920
f 568 397 565
f 418 397 568
f 920 576 102
f 115 121 117
f 584 121 115
f 22 23 13
f 110 582 583
f 5 4 15
f 8 4 5
f 26 9 27
f 10 9 26
f 26 28 10
f 828 834 832
f 832 827 828
f 832 834 829
f 829 827 832
f 813 817 816
f 805 800 799
f 805 807 806
f 799 807 805
f 806 817 805
f 784 778 782
f 782 800 784
f 778 794 782
f 782 794 800
f 611 830 608
f 608 743 611
f 611 743 830
f 605 743 608
f 131 737 606
f 737 743 606
f 743 605 606
f 225 228 230
f 230 664 225
f 222 219 221
f 221 173 222
f 219 220 221
f 12 19 29
f 29 21 12
f 12 21 7
f 7 6 12
f 12 6 13
f 13 19 12
f 35 34 55
f 55 32 35
f 35 21 34
f 27 9 17
f 17 32 27
f 17 9 7
f 17 35 32
f 7 21 17
f 21 35 17
f 29 38 57
f 55 34 65
f 406 393 416
f 393 394 416
f 464 394 471
f 464 416 394
f 153 154 156
f 662 225 658
f 662 156 225
f 658 671 662
f 671 150 662
f 662 153 156
f 150 153 662
f 265 533 310
f 260 255 253
f 260 257 261
f 274 255 260
f 260 275 274
f 261 275 260
f 517 525 526
f 526 527 517
f 522 525 517
f 516 522 517
f 517 527 516
f 212 298 297
f 583 211 212
f 212 297 583
f 211 300 299
f 299 212 211
f 298 212 299
f 308 213 309
f 308 300 213
f 309 269 308
f 269 300 308
f 269 262 268
f 268 300 269
f 268 299 300
f 125 124 122
f 122 730 125
f 124 730 122
f 810 736 731
f 730 729 731
f 125 730 731
f 731 734 125
f 907 888 144
f 907 903 888
f 144 147 146
f 147 489 146
f 901 902 906
f 903 885 890
f 888 903 890
f 924 184 204
f 924 935 184
f 595 935 924
f 924 936 595
f 204 936 924
f 927 598 597
f 169 184 172
f 659 653 660
f 657 653 659
f 671 636 663
f 117 205 120
f 96 63 71
f 27 32 47
f 47 71 63
f 47 32 55
f 55 71 47
f 853 851 849
f 856 851 853
f 716 855 720
f 720 711 716
f 855 711 720
f 698 709 710
f 710 711 698
f 710 709 716
f 716 711 710
f 858 711 855
f 855 860 858
f 698 711 858
f 612 615 613
f 612 610 608
f 613 610 612
f 713 834 719
f 719 717 713
f 707 688 600
f 642 617 629
f 617 642 647
f 647 642 681
f 687 693 680
f 680 624 617
f 617 647 680
f 680 681 687
f 680 647 681
f 620 619 623
f 616 619 620
f 620 618 616
f 625 618 627
f 618 626 627
f 627 631 625
f 627 626 631
f 652 630 634
f 652 634 655
f 655 653 652
f 630 652 650
f 650 652 653
f 699 713 712
f 712 713 717
f 712 717 718
f 712 718 716
f 691 702 709
f 691 690 684
f 691 709 698
f 698 690 691
f 716 709 715
f 709 702 715
f 715 712 716
f 702 712 715
f 694 691 683
f 702 691 694
f 623 624 686
f 686 683 623
f 624 680 686
f 686 694 683
f 686 680 693
f 686 693 699
f 622 637 635
f 623 637 622
f 635 626 622
f 622 620 623
f 626 620 622
f 639 637 640
f 672 669 645
f 645 684 672
f 684 690 672
f 672 690 698
f 817 808 804
f 807 794 804
f 804 794 775
f 806 807 804
f 804 808 806
f 804 774 746
f 775 774 804
f 737 734 735
f 735 738 737
f 736 738 735
f 128 143 742
f 126 142 128
f 142 141 128
f 141 143 128
f 873 740 871
f 592 589 600
f 600 601 592
f 138 589 592
f 592 601 599
f 599 596 592
f 592 597 138
f 592 596 597
f 595 937 934
f 934 937 933
f 934 935 595
f 933 935 934
f 587 589 588
f 587 588 138
f 138 585 587
f 587 590 594
f 587 136 133
f 133 590 587
f 137 937 930
f 930 585 137
f 586 937 923
f 923 136 586
f 586 930 937
f 585 930 586
f 136 587 586
f 586 587 585
f 802 736 810
f 810 790 802
f 816 736 802
f 802 813 816
f 789 785 788
f 789 790 785
f 789 802 790
f 788 800 789
f 740 797 809
f 594 593 609
f 593 610 609
f 609 707 594
f 609 610 613
f 613 707 609
f 264 265 285
f 278 277 276
f 277 257 276
f 972 202 203
f 203 193 972
f 193 194 972
f 290 307 280
f 280 286 290
f 278 286 280
f 281 277 280
f 280 277 278
f 304 303 281
f 281 280 304
f 304 280 307
f 311 307 963
f 311 963 964
f 202 304 311
f 311 304 307
f 964 966 311
f 311 966 203
f 203 202 311
f 310 533 532
f 530 525 524
f 524 525 522
f 522 523 524
f 956 536 524
f 524 523 956
f 233 236 235
f 235 176 233
f 249 237 238
f 238 236 250
f 250 249 238
f 238 237 239
f 238 235 236
f 238 239 242
f 238 196 176
f 176 235 238
f 282 292 274
f 283 292 282
f 274 275 282
f 282 275 261
f 261 277 282
f 209 244 248
f 210 244 209
f 248 249 209
f 209 249 206
f 208 210 209
f 205 208 209
f 209 206 205
f 305 247 245
f 305 302 283
f 245 302 305
f 279 277 281
f 283 282 279
f 279 282 277
f 195 972 194
f 195 194 158
f 158 196 195
f 158 176 197
f 197 196 158
f 176 196 197
f 175 170 973
f 175 191 169
f 973 191 175
f 169 161 175
f 161 170 175
f 475 482 480
f 480 394 475
f 471 394 480
f 480 482 481
f 481 471 480
f 400 403 402
f 403 433 402
f 401 400 402
f 402 433 401
f 436 437 434
f 434 433 436
f 398 397 418
f 398 391 397
f 390 391 398
f 418 415 398
f 398 415 390
f 414 412 419
f 388 412 414
f 389 401 388
f 389 391 401
f 52 53 24
f 24 39 52
f 553 561 557
f 557 555 553
f 2 11 3
f 3 4 2
f 2 4 8
f 2 9 10
f 1 9 2
f 2 8 7
f 7 1 2
f 37 68 42
f 569 84 53
f 569 557 84
f 75 52 39
f 39 49 75
f 563 335 559
f 556 562 559
f 559 564 563
f 559 562 564
f 725 507 556
f 556 335 725
f 508 507 725
f 725 335 508
f 508 335 515
f 515 335 459
f 515 504 508
f 459 504 515
f 336 429 432
f 432 335 336
f 429 426 432
f 459 335 432
f 432 426 459
f 501 507 508
f 508 504 501
f 514 504 459
f 492 495 496
f 492 547 495
f 454 455 357
f 357 356 454
f 368 371 369
f 369 362 368
f 363 362 369
f 369 366 363
f 330 552 326
f 326 328 330
f 330 328 552
f 530 535 531
f 531 525 530
f 531 528 525
f 266 528 531
f 535 265 531
f 450 437 449
f 316 360 317
f 317 360 479
f 315 353 318
f 318 337 315
f 727 353 315
f 315 337 340
f 434 437 438
f 437 443 438
f 438 435 434
f 410 435 438
f 550 386 551
f 551 386 941
f 545 550 551
f 551 941 545
f 384 379 385
f 385 386 384
f 384 383 379
f 375 378 381
f 373 371 375
f 375 371 368
f 368 367 375
f 349 320 319
f 355 367 361
f 361 356 355
f 355 356 357
f 543 940 945
f 545 940 543
f 941 948 943
f 944 942 943
f 943 942 941
f 943 949 944
f 948 949 943
f 960 957 286
f 310 532 960
f 960 536 954
f 954 957 960
f 530 524 960
f 960 524 536
f 952 965 964
f 931 965 952
f 952 959 950
f 952 938 931
f 952 949 938
f 950 949 952
f 961 959 963
f 961 307 290
f 963 307 961
f 892 891 883
f 891 882 883
f 883 885 892
f 893 894 898
f 898 814 893
f 893 814 895
f 791 881 792
f 792 881 887
f 792 793 791
f 895 793 792
f 792 893 895
f 887 893 792
f 796 881 791
f 797 881 796
f 791 795 796
f 796 795 797
f 783 778 775
f 775 794 783
f 783 794 778
f 819 744 745
f 745 818 819
f 766 820 745
f 745 820 818
f 746 766 745
f 745 804 746
f 861 857 917
f 861 852 857
f 917 919 861
f 861 919 95
f 861 95 89
f 771 754 753
f 753 751 771
f 754 755 753
f 747 748 746
f 746 769 747
f 758 757 840
f 758 751 757
f 758 840 761
f 761 751 758
f 840 844 839
f 839 838 764
f 764 763 839
f 839 763 761
f 761 840 839
f 854 64 87
f 87 844 854
f 56 87 64
f 56 64 37
f 69 68 95
f 69 67 48
f 48 42 69
f 69 42 68
f 564 571 567
f 565 563 567
f 563 564 567
f 567 568 565
f 567 571 570
f 570 568 567
f 418 568 573
f 573 568 570
f 573 415 418
f 573 475 415
f 570 102 573
f 573 576 575
f 573 102 576
f 575 482 573
f 573 482 475
f 920 102 921
f 921 102 67
f 921 919 920
f 95 919 921
f 921 69 95
f 67 69 921
f 78 67 99
f 67 102 99
f 570 571 99
f 99 102 570
f 90 80 76
f 76 84 90
f 90 557 561
f 84 557 90
f 59 80 79
f 54 23 44
f 23 22 44
f 8 5 14
f 13 8 14
f 14 22 13
f 14 5 15
f 817 813 812
f 812 813 800
f 812 805 817
f 800 805 812
f 603 593 133
f 608 610 603
f 603 610 593
f 595 139 129
f 129 139 131
f 133 136 132
f 43 57 73
f 43 65 34
f 73 65 43
f 43 34 29
f 29 57 43
f 111 969 119
f 55 65 72
f 72 71 55
f 474 453 408
f 408 464 474
f 453 445 408
f 406 416 408
f 416 464 408
f 408 404 406
f 150 151 152
f 154 153 152
f 152 153 150
f 152 119 154
f 256 260 253
f 257 260 256
f 256 253 252
f 252 257 256
f 271 253 272
f 298 299 270
f 299 268 270
f 270 271 272
f 272 297 270
f 297 298 270
f 810 731 732
f 732 731 729
f 732 729 126
f 144 489 913
f 913 907 144
f 145 489 144
f 144 146 145
f 145 146 489
f 474 464 908
f 908 470 474
f 904 902 903
f 904 906 902
f 904 484 906
f 874 875 877
f 877 880 874
f 882 880 877
f 877 875 876
f 877 883 882
f 885 883 877
f 884 890 885
f 884 877 876
f 885 877 884
f 884 876 888
f 888 890 884
f 598 927 189
f 137 598 189
f 189 926 137
f 184 935 922
f 922 181 184
f 922 935 933
f 933 926 922
f 926 181 922
f 925 181 162
f 162 172 925
f 184 181 925
f 925 172 184
f 164 166 157
f 159 161 169
f 157 161 159
f 159 165 157
f 169 172 159
f 159 172 162
f 165 159 163
f 168 221 220
f 168 220 232
f 173 221 168
f 226 223 227
f 227 230 228
f 227 228 225
f 225 226 227
f 223 173 174
f 174 227 223
f 179 174 162
f 178 174 179
f 190 927 597
f 665 674 666
f 665 659 660
f 666 659 665
f 866 672 865
f 669 672 866
f 117 106 105
f 105 106 74
f 105 115 117
f 968 969 970
f 117 120 970
f 970 106 117
f 216 968 970
f 970 205 216
f 970 120 205
f 41 62 60
f 27 47 41
f 41 47 63
f 63 62 41
f 865 672 862
f 862 672 698
f 698 858 862
f 862 858 860
f 829 834 831
f 831 835 829
f 614 835 615
f 615 612 614
f 829 835 614
f 614 612 608
f 614 830 829
f 608 830 614
f 600 589 602
f 602 707 600
f 594 707 602
f 689 681 682
f 689 692 687
f 687 681 689
f 679 688 705
f 688 707 705
f 705 689 679
f 692 689 706
f 706 705 707
f 689 705 706
f 706 707 613
f 613 708 706
f 646 651 681
f 681 642 646
f 629 651 646
f 646 642 629
f 621 626 618
f 618 620 621
f 621 620 626
f 629 630 648
f 630 650 648
f 649 651 629
f 629 648 649
f 649 648 650
f 650 654 649
f 682 651 649
f 683 691 685
f 685 691 684
f 623 683 685
f 645 623 685
f 685 684 645
f 702 694 704
f 699 712 704
f 704 712 702
f 700 686 699
f 694 686 700
f 699 704 700
f 700 704 694
f 823 817 815
f 817 804 815
f 815 819 823
f 815 744 819
f 815 745 744
f 804 745 815
f 734 731 733
f 733 735 734
f 733 731 736
f 736 735 733
f 741 871 740
f 873 871 872
f 872 874 873
f 872 875 874
f 144 888 140
f 742 143 140
f 140 867 742
f 742 867 870
f 870 741 742
f 871 741 870
f 801 789 800
f 802 789 801
f 800 813 801
f 813 802 801
f 797 795 798
f 798 809 797
f 798 795 790
f 284 286 278
f 278 276 284
f 310 960 287
f 287 960 286
f 287 265 310
f 287 285 265
f 286 284 287
f 287 284 285
f 200 303 201
f 303 304 201
f 201 304 202
f 202 972 201
f 201 195 200
f 972 195 201
f 288 303 200
f 281 303 288
f 288 279 281
f 283 279 288
f 199 198 200
f 242 245 199
f 245 247 199
f 199 238 242
f 196 238 199
f 200 195 199
f 199 195 196
f 403 404 440
f 440 433 403
f 440 408 445
f 424 336 427
f 424 429 336
f 58 67 78
f 78 49 58
f 48 67 58
f 20 49 39
f 3 11 20
f 24 3 20
f 20 39 24
f 37 42 30
f 30 42 48
f 560 569 562
f 556 555 560
f 560 562 556
f 555 557 560
f 557 569 560
f 574 571 564
f 564 75 574
f 78 99 574
f 574 99 571
f 574 49 78
f 574 75 49
f 562 569 572
f 564 562 572
f 572 75 564
f 572 569 53
f 53 52 572
f 52 75 572
f 558 335 556
f 556 559 558
f 558 559 335
f 420 414 419
f 420 426 414
f 419 422 420
f 422 426 420
f 414 426 413
f 413 395 388
f 388 414 413
f 333 334 507
f 507 501 333
f 333 331 332
f 326 331 333
f 333 332 553
f 553 334 333
f 458 454 364
f 364 454 356
f 364 365 458
f 363 365 364
f 364 356 363
f 441 438 443
f 441 442 410
f 410 438 441
f 448 443 455
f 455 454 448
f 448 441 443
f 448 454 458
f 442 441 448
f 458 452 448
f 448 425 442
f 448 452 425
f 370 371 373
f 370 369 371
f 366 369 370
f 374 370 373
f 366 370 374
f 259 265 264
f 259 257 258
f 259 276 257
f 259 284 276
f 264 285 259
f 285 284 259
f 456 347 357
f 450 449 456
f 456 455 450
f 357 455 456
f 340 337 339
f 338 341 339
f 339 337 338
f 437 436 444
f 444 449 437
f 478 489 317
f 317 479 478
f 479 476 478
f 350 315 340
f 340 360 350
f 360 316 350
f 350 316 317
f 317 147 350
f 350 147 727
f 727 315 350
f 383 384 387
f 381 383 387
f 387 386 550
f 387 384 386
f 387 548 381
f 550 548 387
f 382 375 381
f 382 549 373
f 381 549 382
f 372 375 367
f 377 378 372
f 378 375 372
f 354 349 358
f 377 372 358
f 358 372 367
f 367 355 358
f 358 355 354
f 344 320 346
f 320 349 346
f 345 344 346
f 346 349 354
f 547 544 542
f 542 540 547
f 542 544 546
f 542 546 545
f 545 543 542
f 538 540 539
f 539 955 537
f 539 521 538
f 537 521 539
f 530 960 529
f 529 960 532
f 529 532 533
f 529 535 530
f 533 265 529
f 529 265 535
f 964 959 958
f 958 952 964
f 959 952 958
f 953 957 954
f 953 954 947
f 947 950 953
f 950 959 953
f 959 961 953
f 878 880 887
f 874 880 878
f 873 874 878
f 878 881 873
f 887 881 878
f 896 894 889
f 889 882 896
f 889 880 882
f 894 893 886
f 886 889 894
f 880 889 886
f 887 880 886
f 886 893 887
f 859 861 89
f 852 861 859
f 89 847 859
f 859 847 852
f 756 755 759
f 756 753 755
f 759 840 756
f 840 757 756
f 757 751 756
f 751 753 756
f 771 751 768
f 768 747 769
f 768 770 771
f 768 776 779
f 769 776 768
f 768 779 780
f 780 770 768
f 750 751 761
f 748 747 750
f 838 839 841
f 821 838 841
f 841 842 821
f 60 62 93
f 93 88 60
f 92 841 839
f 88 841 92
f 92 839 844
f 844 87 92
f 60 88 61
f 88 92 61
f 87 56 61
f 61 92 87
f 28 26 36
f 37 28 36
f 36 56 37
f 36 61 56
f 60 61 36
f 104 90 561
f 80 90 104
f 104 561 552
f 104 552 566
f 79 80 94
f 80 104 94
f 94 104 579
f 578 724 580
f 724 313 580
f 76 80 50
f 80 59 50
f 50 46 76
f 15 46 50
f 51 44 22
f 51 59 79
f 51 81 44
f 22 14 31
f 31 51 22
f 59 51 31
f 31 50 59
f 31 14 15
f 15 50 31
f 607 605 608
f 608 603 607
f 604 603 133
f 133 132 604
f 605 607 604
f 604 607 603
f 604 606 605
f 131 606 130
f 130 129 131
f 606 129 130
f 135 129 606
f 606 604 135
f 135 604 132
f 135 923 595
f 595 129 135
f 969 111 107
f 107 970 969
f 106 970 107
f 103 111 119
f 71 72 863
f 863 860 96
f 96 71 863
f 863 862 860
f 118 114 971
f 118 101 114
f 971 671 118
f 97 65 73
f 73 101 97
f 97 72 65
f 97 863 72
f 253 271 263
f 263 262 253
f 263 268 262
f 263 270 268
f 271 270 263
f 810 732 811
f 740 809 811
f 811 732 740
f 903 907 910
f 901 906 486
f 909 904 903
f 903 910 909
f 909 910 489
f 484 476 463
f 469 463 476
f 160 159 162
f 162 163 160
f 160 163 159
f 165 163 167
f 163 168 167
f 167 168 232
f 232 166 167
f 166 164 167
f 157 165 167
f 167 164 157
f 171 163 162
f 162 174 171
f 171 174 173
f 173 168 171
f 171 168 163
f 177 174 178
f 227 174 177
f 162 181 182
f 926 189 185
f 178 179 185
f 187 178 185
f 185 190 187
f 185 189 927
f 927 190 185
f 675 190 597
f 674 190 675
f 675 597 599
f 599 676 675
f 675 659 666
f 666 674 675
f 674 665 677
f 187 190 677
f 677 190 674
f 231 665 660
f 835 831 836
f 836 831 834
f 701 713 699
f 699 697 701
f 589 587 591
f 591 602 589
f 591 587 594
f 594 602 591
f 679 654 656
f 656 688 679
f 676 688 656
f 656 675 676
f 659 675 656
f 657 659 656
f 656 653 657
f 656 650 653
f 656 654 650
f 682 649 673
f 673 649 654
f 673 689 682
f 679 689 673
f 673 654 679
f 740 732 739
f 739 732 126
f 739 741 740
f 126 128 739
f 739 128 742
f 742 741 739
f 869 872 871
f 871 870 869
f 869 870 867
f 875 872 869
f 876 875 869
f 879 140 888
f 867 140 879
f 888 876 879
f 876 869 879
f 879 869 867
f 868 141 144
f 144 140 868
f 868 143 141
f 868 140 143
f 306 199 247
f 283 288 306
f 198 199 306
f 306 305 283
f 247 305 306
f 200 198 306
f 306 288 200
f 404 408 407
f 407 440 404
f 408 440 407
f 447 444 446
f 446 444 436
f 439 436 433
f 433 440 439
f 439 446 436
f 447 446 439
f 451 445 453
f 451 440 445
f 453 462 451
f 451 439 440
f 427 397 396
f 396 424 427
f 395 413 396
f 397 391 396
f 391 389 396
f 388 395 396
f 396 389 388
f 33 58 49
f 49 20 33
f 33 20 11
f 48 58 33
f 33 30 48
f 11 30 33
f 11 2 18
f 18 30 11
f 18 2 10
f 423 413 426
f 423 426 429
f 429 424 423
f 424 396 423
f 423 396 413
f 502 333 501
f 501 499 502
f 326 333 502
f 502 499 326
f 500 501 504
f 500 499 501
f 494 492 496
f 514 467 512
f 504 514 512
f 512 511 504
f 430 426 422
f 422 425 430
f 430 425 431
f 380 374 373
f 492 494 380
f 373 547 380
f 547 492 380
f 254 259 258
f 254 257 252
f 258 257 254
f 266 531 254
f 252 262 254
f 254 262 266
f 534 531 265
f 265 259 534
f 534 254 531
f 259 254 534
f 347 456 342
f 342 456 449
f 342 339 341
f 341 343 342
f 342 343 347
f 340 339 351
f 351 360 340
f 447 469 351
f 351 479 360
f 351 476 479
f 351 469 476
f 477 476 489
f 489 478 477
f 477 478 476
f 373 375 376
f 376 382 373
f 375 382 376
f 359 349 319
f 359 358 349
f 319 321 359
f 377 358 359
f 359 379 377
f 321 379 359
f 348 347 345
f 345 346 348
f 357 347 348
f 348 346 354
f 348 355 357
f 354 355 348
f 540 542 541
f 541 542 543
f 541 539 540
f 541 543 945
f 945 955 541
f 955 539 541
f 957 953 962
f 962 953 961
f 286 957 962
f 962 961 290
f 290 286 962
f 749 768 751
f 747 768 749
f 751 750 749
f 749 750 747
f 752 750 761
f 748 750 752
f 761 763 752
f 764 748 752
f 752 763 764
f 91 93 62
f 853 93 91
f 91 62 63
f 91 63 96
f 96 856 91
f 856 853 91
f 848 841 88
f 88 93 848
f 849 842 848
f 842 841 848
f 848 853 849
f 848 93 853
f 40 36 26
f 40 26 27
f 27 41 40
f 40 41 60
f 60 36 40
f 79 94 109
f 109 94 579
f 109 580 110
f 579 580 109
f 582 110 581
f 110 580 581
f 309 582 581
f 581 313 309
f 581 580 313
f 578 580 577
f 577 580 579
f 566 723 577
f 723 578 577
f 577 104 566
f 579 104 577
f 112 81 110
f 112 110 583
f 583 584 112
f 584 115 112
f 54 44 83
f 44 81 83
f 83 74 54
f 83 105 74
f 82 51 79
f 81 51 82
f 110 81 82
f 79 109 82
f 82 109 110
f 134 132 136
f 134 135 132
f 134 136 923
f 923 135 134
f 116 103 119
f 971 114 116
f 119 152 116
f 116 150 971
f 116 151 150
f 116 152 151
f 100 101 73
f 114 101 100
f 70 57 38
f 85 107 111
f 111 103 85
f 669 866 668
f 866 118 668
f 863 97 864
f 865 862 864
f 862 863 864
f 809 798 803
f 803 811 809
f 803 798 790
f 803 790 810
f 810 811 803
f 907 913 911
f 911 910 907
f 911 913 489
f 489 910 911
f 474 470 899
f 899 486 474
f 470 908 899
f 899 908 464
f 464 905 899
f 899 900 901
f 485 488 899
f 488 900 899
f 473 486 906
f 906 483 473
f 474 486 473
f 473 453 474
f 473 462 453
f 912 476 484
f 484 904 912
f 904 909 912
f 489 476 912
f 912 909 489
f 484 463 468
f 906 484 468
f 468 483 906
f 462 473 468
f 468 473 483
f 180 179 162
f 162 182 180
f 180 182 179
f 179 182 183
f 183 181 926
f 183 182 181
f 678 677 665
f 665 231 188
f 188 178 187
f 188 678 665
f 187 677 188
f 677 678 188
f 230 227 667
f 667 231 660
f 660 664 667
f 664 230 667
f 613 615 714
f 714 708 613
f 703 706 714
f 714 706 708
f 834 713 714
f 714 836 834
f 714 701 703
f 713 701 714
f 696 701 697
f 703 701 696
f 696 693 687
f 687 692 696
f 696 706 703
f 692 706 696
f 457 451 462
f 439 451 457
f 462 468 457
f 457 468 463
f 447 439 457
f 457 469 447
f 463 469 457
f 30 18 25
f 25 28 37
f 37 30 25
f 10 28 25
f 25 18 10
f 498 494 496
f 326 499 498
f 499 494 498
f 511 512 509
f 509 512 467
f 504 511 509
f 426 430 460
f 459 426 460
f 460 514 459
f 460 467 514
f 503 506 374
f 503 380 499
f 374 380 503
f 365 465 461
f 431 452 461
f 461 452 365
f 493 494 499
f 499 380 493
f 493 380 494
f 352 351 339
f 352 342 449
f 339 342 352
f 447 351 352
f 352 444 447
f 449 444 352
f 81 112 108
f 108 83 81
f 105 83 108
f 115 105 108
f 108 112 115
f 98 116 114
f 103 116 98
f 114 100 98
f 98 100 73
f 106 107 86
f 107 85 86
f 74 106 86
f 669 668 638
f 640 669 638
f 638 639 640
f 635 637 638
f 637 639 638
f 638 636 635
f 638 663 636
f 671 663 638
f 113 97 101
f 113 864 97
f 101 118 113
f 113 118 866
f 113 866 865
f 865 864 113
f 901 486 487
f 487 899 901
f 486 899 487
f 485 899 472
f 472 899 905
f 472 905 464
f 472 471 485
f 472 464 471
f 186 185 179
f 179 183 186
f 926 185 186
f 186 183 926
f 229 188 231
f 231 667 229
f 229 667 227
f 227 177 229
f 229 177 178
f 178 188 229
f 837 714 615
f 836 714 837
f 615 835 837
f 835 836 837
f 693 696 695
f 695 696 697
f 699 693 695
f 695 697 699
f 497 496 326
f 326 498 497
f 497 498 496
f 505 500 504
f 504 509 505
f 499 500 505
f 505 503 499
f 505 509 506
f 506 503 505
f 365 366 510
f 366 374 510
f 374 506 510
f 506 509 510
f 466 460 430
f 466 430 431
f 467 460 466
f 431 461 466
f 466 461 465
f 103 98 77
f 77 85 103
f 70 85 77
f 77 98 73
f 73 57 77
f 57 70 77
f 45 74 66
f 74 86 66
f 66 38 45
f 66 86 85
f 66 70 38
f 66 85 70
f 670 668 118
f 670 638 668
f 670 118 671
f 671 638 670
f 513 509 467
f 513 510 509
f 467 466 513
f 513 466 465
f 513 465 365
f 365 510 513

